<svg width="300" height="600" viewBox="0 0 300 600" fill="none" xmlns="http://www.w3.org/2000/svg">
<path d="M156.671 102.392C152.863 102.392 149.783 99.368 149.783 95.056C149.783 90.744 152.891 87.72 156.783 87.72C160.871 87.72 163.447 90.604 163.447 94.664V95.42H151.995C152.135 98.248 153.955 100.46 156.755 100.46C159.135 100.46 160.507 99.172 161.375 97.352L163.055 98.332C161.767 100.936 159.779 102.392 156.671 102.392ZM151.995 93.6H161.179C161.039 90.94 159.023 89.54 156.755 89.54C154.347 89.54 152.443 91.304 151.995 93.6Z" fill="white"/>
<path d="M145.117 102V82.4H147.357V102H145.117Z" fill="white"/>
<path d="M136.031 102.392C133.763 102.392 131.943 101.076 131.159 99.648V102H128.919V82.4H131.159V90.436C132.195 88.812 134.043 87.72 136.283 87.72C139.951 87.72 142.695 90.744 142.695 95.056C142.695 99.368 139.839 102.392 136.031 102.392ZM135.695 100.348C138.467 100.348 140.399 98.164 140.399 95.056C140.399 91.948 138.411 89.764 135.695 89.764C132.951 89.764 130.991 92.004 130.991 95.056C130.991 98.108 132.923 100.348 135.695 100.348Z" fill="white"/>
<path d="M118.857 102.392C116.029 102.392 114.209 100.628 114.209 98.136C114.209 95.42 116.421 94.048 118.941 93.656L123.645 92.9V92.256C123.645 90.436 122.441 89.512 120.369 89.512C118.185 89.512 117.065 90.604 117.065 91.78C117.065 91.892 117.065 91.948 117.121 92.172L115.189 92.816C115.049 92.508 114.965 92.088 114.965 91.724C114.965 89.568 117.149 87.72 120.369 87.72C123.925 87.72 125.885 89.4 125.885 92.312V98.528C125.885 100.124 126.081 100.936 126.753 102H124.485C124.121 101.58 123.673 100.684 123.673 99.256C122.917 101.132 120.901 102.392 118.857 102.392ZM119.221 100.432C122.021 100.432 123.645 97.884 123.645 95.196V94.636L119.389 95.336C117.513 95.644 116.449 96.624 116.449 98.052C116.449 99.48 117.541 100.432 119.221 100.432Z" fill="white"/>
<path d="M110.935 102.392C108.947 102.392 107.267 101.3 107.267 98.444V89.876H104.915V88.112H107.267V84.36H109.535V88.112H112.839V89.876H109.535V98.276C109.535 99.732 110.179 100.404 111.439 100.404C111.831 100.404 112.251 100.32 112.531 100.236L112.727 102.112C112.251 102.28 111.663 102.392 110.935 102.392Z" fill="white"/>
<path d="M98.0788 102.392C93.9908 102.392 90.9668 99.34 90.9668 95.056C90.9668 90.744 94.2148 87.72 98.0788 87.72C101.019 87.72 103.035 89.008 104.099 91.22L102.279 92.34C101.327 90.576 99.8148 89.792 98.1068 89.792C95.4188 89.792 93.2628 91.808 93.2628 95.056C93.2628 98.248 95.3348 100.32 98.1068 100.32C100.235 100.32 101.439 99.368 102.391 97.772L104.099 98.864C102.895 100.992 100.907 102.392 98.0788 102.392Z" fill="white"/>
<path d="M86.2139 85.6761V82.9601H88.8739V85.6761H86.2139ZM86.4379 102V88.1121H88.6779V102H86.4379Z" fill="white"/>
<path d="M76.0633 102.392C72.1993 102.392 69.3433 99.368 69.3433 95.056C69.3433 90.744 72.3393 87.72 75.9793 87.72C78.1913 87.72 79.9553 88.728 80.8793 90.464V82.4H83.1193V102H80.8793V99.536C80.0953 101.076 78.3313 102.392 76.0633 102.392ZM76.3433 100.348C79.1153 100.348 81.0473 98.108 81.0473 95.056C81.0473 92.004 79.1153 89.764 76.3433 89.764C73.5993 89.764 71.6393 91.948 71.6393 95.056C71.6393 98.164 73.5993 100.348 76.3433 100.348Z" fill="white"/>
<path d="M61.0174 102.392C57.2094 102.392 54.1294 99.368 54.1294 95.056C54.1294 90.744 57.2374 87.72 61.1294 87.72C65.2174 87.72 67.7934 90.604 67.7934 94.664V95.42H56.3414C56.4814 98.248 58.3014 100.46 61.1014 100.46C63.4814 100.46 64.8534 99.172 65.7214 97.352L67.4014 98.332C66.1134 100.936 64.1254 102.392 61.0174 102.392ZM56.3414 93.6H65.5254C65.3854 90.94 63.3694 89.54 61.1014 89.54C58.6934 89.54 56.7894 91.304 56.3414 93.6Z" fill="white"/>
<path d="M46.6199 102V88.112H48.8599V90.604C49.5319 88.98 50.9879 87.72 52.8359 87.72C53.2839 87.72 53.6199 87.748 53.9839 87.86L53.6199 89.904C53.3399 89.82 52.9759 89.764 52.5559 89.764C50.4559 89.764 48.8599 91.976 48.8599 94.664V102H46.6199Z" fill="white"/>
<path d="M30.4214 107.712V88.112H32.6614V90.632C33.5294 89.064 35.3774 87.72 37.7014 87.72C41.3974 87.72 44.1974 90.744 44.1974 95.056C44.1974 99.312 41.4254 102.392 37.5894 102.392C35.4334 102.392 33.6414 101.412 32.6614 99.76V107.712H30.4214ZM37.1974 100.348C39.9694 100.348 41.9014 98.136 41.9014 95.056C41.9014 91.976 39.9694 89.764 37.1974 89.764C34.4254 89.764 32.4934 92.032 32.4934 95.056C32.4934 98.08 34.4254 100.348 37.1974 100.348Z" fill="white"/>
</svg>
