<?xml version="1.0" encoding="UTF-8"?>
<svg width="19px" height="19px" viewBox="0 0 19 19" version="1.1" xmlns="http://www.w3.org/2000/svg" xmlns:xlink="http://www.w3.org/1999/xlink">
    <!-- Generator: sketchtool 55.2 (78181) - https://sketchapp.com -->
    <title>31537A72-31CE-4383-B018-280B7B299221</title>
    <desc>Created with sketchtool.</desc>
    <g id="Ficha-de-producto" stroke="none" stroke-width="1" fill="none" fill-rule="evenodd">
        <g id="1_Forum_ficha_producto_Ficha-técnica" transform="translate(-1164.000000, -1267.000000)" fill="#E42119">
            <g id="opiniones" transform="translate(181.000000, 862.000000)">
                <g id="details">
                    <g id="Descripción-Copy" transform="translate(0.000000, 232.000000)">
                        <g id="valoraciones" transform="translate(851.000000, 68.000000)">
                            <path d="M141.949242,105.312955 L144.366019,111.311262 L150.553281,111.86865 C150.98241,111.907513 151.156987,112.468992 150.831239,112.76456 L146.138128,117.028319 L147.544501,123.371285 C147.64203,123.812082 147.186568,124.158787 146.817907,123.924582 L141.500608,120.561848 L136.183308,123.924582 C135.813672,124.157764 135.359185,123.811059 135.456714,123.371285 L136.863088,117.028319 L132.169001,112.763538 C131.843253,112.467969 132.016855,111.906491 132.446959,111.867627 L138.63422,111.310239 L141.050997,105.312955 C141.218748,104.895682 141.781492,104.895682 141.949242,105.312955 Z" id="star"></path>
                        </g>
                    </g>
                </g>
            </g>
        </g>
    </g>
</svg>