<?xml version="1.0" encoding="UTF-8"?>
<svg width="38px" height="38px" viewBox="0 0 38 38" version="1.1" xmlns="http://www.w3.org/2000/svg" xmlns:xlink="http://www.w3.org/1999/xlink">
    <!-- Generator: sketchtool 53.2 (72643) - https://sketchapp.com -->
    <title>735770B7-C4FF-47B7-A563-E84EFBC31AFF</title>
    <desc>Created with sketchtool.</desc>
    <g id="Page-1" stroke="none" stroke-width="1" fill="none" fill-rule="evenodd">
        <g id="Menu_desp" transform="translate(-1365.000000, -5553.000000)" fill="#FFFFFF">
            <g id="footer" transform="translate(0.000000, 5243.000000)">
                <g id="siguenos" transform="translate(1364.000000, 263.000000)">
                    <g id="rrss" transform="translate(1.000000, 47.000000)">
                        <path d="M23.0812,19 L20.4642,19 L20.4642,28.5 L16.5322,28.5 L16.5322,19 L14.5732,19 L14.5732,15.726 L16.5322,15.726 L16.5322,13.755 C16.5322,12.355 16.8632,11.296 17.5232,10.578 C18.1842,9.86 19.2712,9.5 20.7862,9.5 L23.4032,9.5 L23.4032,12.776 L21.7662,12.776 C21.4662,12.776 21.2272,12.8 21.0452,12.85 C20.8662,12.901 20.7352,12.991 20.6542,13.121 C20.5732,13.252 20.5212,13.385 20.4982,13.519 C20.4752,13.653 20.4642,13.843 20.4642,14.089 L20.4642,15.726 L23.4272,15.726 L23.0812,19 Z M19.0002,0 C8.5062,0 0.0002,8.507 0.0002,19 C0.0002,29.493 8.5062,38 19.0002,38 C29.4932,38 38.0002,29.493 38.0002,19 C38.0002,8.507 29.4932,0 19.0002,0 L19.0002,0 Z" id="facebook"></path>
                    </g>
                </g>
            </g>
        </g>
    </g>
</svg>